<svg xmlns="http://www.w3.org/2000/svg" version="1.1" xmlns:xlink="http://www.w3.org/1999/xlink" xmlns:svgjs="http://svgjs.dev/svgjs" width="2000" height="1252" viewBox="0 0 2000 1252"><g transform="matrix(1,0,0,1,-1.2121212121212466,-2.01935483870966)"><svg viewBox="0 0 396 248" data-background-color="#ffffff" preserveAspectRatio="xMidYMid meet" height="1252" width="2000" xmlns="http://www.w3.org/2000/svg" xmlns:xlink="http://www.w3.org/1999/xlink"><g id="tight-bounds" transform="matrix(1,0,0,1,0.2400000000000091,0.4000000000000057)"><svg viewBox="0 0 395.52 247.2" height="247.2" width="395.52"><g><svg></svg></g><g><svg viewBox="0 0 395.52 247.2" height="247.2" width="395.52"><g transform="matrix(1,0,0,1,98.45976,47.215199999999996)"><svg viewBox="0 0 198.60047999999998 152.7696" height="152.7696" width="198.60047999999998"><g><svg viewBox="0 0 198.60047999999998 152.7696" height="152.7696" width="198.60047999999998"><g><svg viewBox="0 0 198.60047999999998 152.7696" height="152.7696" width="198.60047999999998"><g id="textblocktransform"><svg viewBox="0 0 198.60047999999998 152.7696" height="152.7696" width="198.60047999999998" id="textblock"><g><svg viewBox="0 0 198.60047999999998 152.7696" height="152.7696" width="198.60047999999998"><g transform="matrix(1,0,0,1,0,0)"><svg width="198.60047999999998" viewBox="1.7999999999999998 -28 36.400000000000006 28" height="152.7696" data-palette-color="#000000"><path d="M17.2-26Q17.2-24.85 17-24L17-24 14-24Q14.2-23.2 14.2-22L14.2-22Q14.2-20.85 14-20L14-20Q14.2-19.2 14.2-18L14.2-18Q14.2-16.85 14-16L14-16Q14.2-15.2 14.2-14L14.2-14Q14.2-12.85 14-12L14-12Q14.2-11.2 14.2-10L14.2-10Q14.2-8.85 14-8L14-8Q14.2-7.2 14.2-6L14.2-6Q14.2-4.85 14-4L14-4 12-4Q12.2-3.2 12.2-2L12.2-2Q12.2-0.85 12 0L12 0 4 0Q3.8-0.85 3.8-2L3.8-2Q3.8-3.2 4-4L4-4 2-4Q1.8-4.85 1.8-6L1.8-6Q1.8-7.2 2-8L2-8 6-8Q6.2-7.2 6.2-6L6.2-6Q6.2-4.85 6-4L6-4 10-4Q9.8-4.85 9.8-6L9.8-6Q9.8-7.2 10-8L10-8Q9.8-8.85 9.8-10L9.8-10Q9.8-11.2 10-12L10-12Q9.8-12.85 9.8-14L9.8-14Q9.8-15.2 10-16L10-16Q9.8-16.85 9.8-18L9.8-18Q9.8-19.2 10-20L10-20Q9.8-20.85 9.8-22L9.8-22Q9.8-23.2 10-24L10-24 7-24Q6.8-24.85 6.8-26L6.8-26Q6.8-27.2 7-28L7-28 17-28Q17.2-27.2 17.2-26L17.2-26ZM38-16Q38.2-15.2 38.2-14L38.2-14Q38.2-12.85 38-12L38-12Q38.2-11.2 38.2-10L38.2-10Q38.2-8.85 38-8L38-8 36-8Q36.2-7.2 36.2-6L36.2-6Q36.2-4.85 36-4L36-4 34-4Q34.2-3.2 34.2-2L34.2-2Q34.2-0.85 34 0L34 0 22 0Q21.8-0.85 21.8-2L21.8-2Q21.8-3.2 22-4L22-4Q21.8-4.85 21.8-6L21.8-6Q21.8-7.2 22-8L22-8Q21.8-8.85 21.8-10L21.8-10Q21.8-11.2 22-12L22-12Q21.8-12.85 21.8-14L21.8-14Q21.8-15.2 22-16L22-16Q21.8-16.85 21.8-18L21.8-18Q21.8-19.2 22-20L22-20Q21.8-20.85 21.8-22L21.8-22Q21.8-23.2 22-24L22-24Q21.8-24.85 21.8-26L21.8-26Q21.8-27.2 22-28L22-28 34-28Q34.2-27.2 34.2-26L34.2-26Q34.2-24.85 34-24L34-24 36-24Q36.2-23.2 36.2-22L36.2-22Q36.2-20.85 36-20L36-20 38-20Q38.2-19.2 38.2-18L38.2-18Q38.2-16.85 38-16L38-16ZM34-8Q33.8-8.85 33.8-10L33.8-10Q33.8-11.2 34-12L34-12Q33.8-12.85 33.8-14L33.8-14Q33.8-15.2 34-16L34-16Q33.8-16.85 33.8-18L33.8-18Q33.8-19.2 34-20L34-20 32-20Q31.8-20.85 31.8-22L31.8-22Q31.8-23.2 32-24L32-24 26-24Q26.2-23.2 26.2-22L26.2-22Q26.2-20.85 26-20L26-20Q26.2-19.2 26.2-18L26.2-18Q26.2-16.85 26-16L26-16Q26.2-15.2 26.2-14L26.2-14Q26.2-12.85 26-12L26-12Q26.2-11.2 26.2-10L26.2-10Q26.2-8.85 26-8L26-8Q26.2-7.2 26.2-6L26.2-6Q26.2-4.85 26-4L26-4 32-4Q31.8-4.85 31.8-6L31.8-6Q31.8-7.2 32-8L32-8 34-8Z" opacity="1" transform="matrix(1,0,0,1,0,0)" fill="#ffffff" class="wordmark-text-0" data-fill-palette-color="primary" id="text-0"></path></svg></g></svg></g></svg></g></svg></g></svg></g></svg></g><path d="M280.761 41.215L280.761 0 33.561 0 33.561 247.2 280.761 247.2 280.761 205.985 266.984 205.985 266.984 233.423 47.338 233.423 47.338 13.777 266.984 13.777 266.984 41.215Z" fill="#ffffff" stroke="transparent" data-fill-palette-color="tertiary"></path></svg></g><defs></defs></svg><rect width="395.52" height="247.2" fill="none" stroke="none" visibility="hidden"></rect></g></svg></g></svg>